{
  "accessors": [
    {
      "bufferView": 2,
      "componentType": 5126,
      "count": 3596,
      "max": [
        1.0107319355010986,
        -0.43064120411872864,
        0.40962356328964233
      ],
      "min": [
        -1.0107319355010986,
        -0.6656559109687805,
        0.16459430754184723
      ],
      "type": "VEC3"
    },
    {
      "bufferView": 2,
      "byteOffset": 43152,
      "componentType": 5126,
      "count": 3596,
      "max": [
        0.9996795058250427,
        0.9974209666252136,
        0.9999987483024597
      ],
      "min": [
        -0.9996795058250427,
        -0.9985272288322449,
        -0.9956719279289246
      ],
      "type": "VEC3"
    },
    {
      "bufferView": 3,
      "componentType": 5126,
      "count": 3596,
      "max": [
        0.929411768913269,
        0.7215686440467834,
        0.27450981736183167,
        1.0
      ],
      "min": [
        0.9254902005195618,
        0.7176470756530762,
        0.2705882489681244,
        1.0
      ],
      "type": "VEC4"
    },
    {
      "bufferView": 1,
      "componentType": 5126,
      "count": 3596,
      "max": [
        0.9844300150871277,
        0.9626500010490417
      ],
      "min": [
        0.3763499855995178,
        0.7903900146484375
      ],
      "type": "VEC2"
    },
    {
      "bufferView": 0,
      "componentType": 5125,
      "count": 21048,
      "type": "SCALAR"
    },
    {
      "bufferView": 2,
      "byteOffset": 86304,
      "componentType": 5126,
      "count": 4928,
      "max": [
        0.14546328783035278,
        -0.14214536547660828,
        1.416825771331787
      ],
      "min": [
        -0.1454632729291916,
        -0.18261589109897614,
        1.3692591190338135
      ],
      "type": "VEC3"
    },
    {
      "bufferView": 2,
      "byteOffset": 145440,
      "componentType": 5126,
      "count": 4928,
      "max": [
        0.9970456957817078,
        0.9997839331626892,
        0.9997931122779846
      ],
      "min": [
        -0.9970456957817078,
        -0.9952186942100525,
        -0.9977130889892578
      ],
      "type": "VEC3"
    },
    {
      "bufferView": 3,
      "byteOffset": 57536,
      "componentType": 5126,
      "count": 4928,
      "max": [
        0.0,
        0.0,
        0.0,
        1.0
      ],
      "min": [
        0.0,
        0.0,
        0.0,
        1.0
      ],
      "type": "VEC4"
    },
    {
      "bufferView": 1,
      "byteOffset": 28768,
      "componentType": 5126,
      "count": 4928,
      "max": [
        0.9815700054168701,
        0.9233599901199341
      ],
      "min": [
        0.5123999714851379,
        0.20327000319957733
      ],
      "type": "VEC2"
    },
    {
      "bufferView": 0,
      "byteOffset": 84192,
      "componentType": 5125,
      "count": 28524,
      "type": "SCALAR"
    },
    {
      "bufferView": 2,
      "byteOffset": 204576,
      "componentType": 5126,
      "count": 59420,
      "max": [
        0.13670793175697327,
        -0.05165081098675728,
        1.3805742263793945
      ],
      "min": [
        -0.13670793175697327,
        -0.17282183468341827,
        1.2589111328125
      ],
      "type": "VEC3"
    },
    {
      "bufferView": 2,
      "byteOffset": 917616,
      "componentType": 5126,
      "count": 59420,
      "max": [
        0.9999792575836182,
        0.9999909996986389,
        0.99995356798172
      ],
      "min": [
        -0.9999791979789734,
        -0.999936044216156,
        -0.9999483823776245
      ],
      "type": "VEC3"
    },
    {
      "bufferView": 3,
      "byteOffset": 136384,
      "componentType": 5126,
      "count": 59420,
      "max": [
        1.0,
        1.0,
        1.0,
        1.0
      ],
      "min": [
        0.0,
        0.0,
        0.0,
        1.0
      ],
      "type": "VEC4"
    },
    {
      "bufferView": 1,
      "byteOffset": 68192,
      "componentType": 5126,
      "count": 59420,
      "max": [
        0.9619699716567993,
        0.7815399765968323
      ],
      "min": [
        0.10829000174999237,
        0.4052700102329254
      ],
      "type": "VEC2"
    },
    {
      "bufferView": 0,
      "byteOffset": 198288,
      "componentType": 5125,
      "count": 355056,
      "type": "SCALAR"
    },
    {
      "bufferView": 2,
      "byteOffset": 1630656,
      "componentType": 5126,
      "count": 9607,
      "max": [
        0.31332340836524963,
        0.36323148012161255,
        -0.558293342590332
      ],
      "min": [
        -0.31332337856292725,
        -0.21973562240600586,
        -0.8364614248275757
      ],
      "type": "VEC3"
    },
    {
      "bufferView": 2,
      "byteOffset": 1745940,
      "componentType": 5126,
      "count": 9607,
      "max": [
        0.9999127984046936,
        0.9999487996101379,
        1.0
      ],
      "min": [
        -0.9999048709869385,
        -0.9998654723167419,
        -1.0
      ],
      "type": "VEC3"
    },
    {
      "bufferView": 3,
      "byteOffset": 1087104,
      "componentType": 5126,
      "count": 9607,
      "max": [
        0.9725490212440491,
        0.05882352963089943,
        0.07450980693101883,
        1.0
      ],
      "min": [
        0.7019608020782471,
        0.03529411926865578,
        0.03529411926865578,
        1.0
      ],
      "type": "VEC4"
    },
    {
      "bufferView": 1,
      "byteOffset": 543552,
      "componentType": 5126,
      "count": 9607,
      "max": [
        0.6095399856567383,
        0.8949000239372253
      ],
      "min": [
        0.4604800045490265,
        0.7283599972724915
      ],
      "type": "VEC2"
    },
    {
      "bufferView": 0,
      "byteOffset": 1618512,
      "componentType": 5125,
      "count": 57282,
      "type": "SCALAR"
    },
    {
      "bufferView": 2,
      "byteOffset": 1861224,
      "componentType": 5126,
      "count": 65532,
      "max": [
        1.2579929828643799,
        0.5052062273025513,
        1.479932427406311
      ],
      "min": [
        -1.2579929828643799,
        -1.0800244808197021,
        -0.820040762424469
      ],
      "type": "VEC3"
    },
    {
      "bufferView": 2,
      "byteOffset": 2647608,
      "componentType": 5126,
      "count": 65532,
      "max": [
        0.9999979734420776,
        1.0,
        0.9998893737792969
      ],
      "min": [
        -0.9999979734420776,
        -0.9999991059303284,
        -0.9999950528144836
      ],
      "type": "VEC3"
    },
    {
      "bufferView": 3,
      "byteOffset": 1240816,
      "componentType": 5126,
      "count": 65532,
      "max": [
        0.529411792755127,
        0.772549033164978,
        0.9490196108818054,
        1.0
      ],
      "min": [
        0.0313725508749485,
        0.03529411926865578,
        0.16470588743686676,
        1.0
      ],
      "type": "VEC4"
    },
    {
      "bufferView": 1,
      "byteOffset": 620408,
      "componentType": 5126,
      "count": 65532,
      "max": [
        0.7329599857330322,
        0.8215799927711487
      ],
      "min": [
        0.0019499999471008778,
        0.0019499999471008778
      ],
      "type": "VEC2"
    },
    {
      "bufferView": 0,
      "byteOffset": 1847640,
      "componentType": 5125,
      "count": 355986,
      "type": "SCALAR"
    },
    {
      "bufferView": 2,
      "byteOffset": 3433992,
      "componentType": 5126,
      "count": 32196,
      "max": [
        1.257251262664795,
        0.5048372149467468,
        1.479596495628357
      ],
      "min": [
        -1.2579929828643799,
        -1.0800244808197021,
        -0.820040762424469
      ],
      "type": "VEC3"
    },
    {
      "bufferView": 2,
      "byteOffset": 3820344,
      "componentType": 5126,
      "count": 32196,
      "max": [
        0.9980259537696838,
        1.0,
        0.9995864033699036
      ],
      "min": [
        -0.9999618530273438,
        -0.9999019503593445,
        -0.9999933838844299
      ],
      "type": "VEC3"
    },
    {
      "bufferView": 3,
      "byteOffset": 2289328,
      "componentType": 5126,
      "count": 32196,
      "max": [
        0.529411792755127,
        0.772549033164978,
        0.9490196108818054,
        1.0
      ],
      "min": [
        0.0313725508749485,
        0.03529411926865578,
        0.16470588743686676,
        1.0
      ],
      "type": "VEC4"
    },
    {
      "bufferView": 1,
      "byteOffset": 1144664,
      "componentType": 5126,
      "count": 32196,
      "max": [
        0.7217699885368347,
        0.7889400124549866
      ],
      "min": [
        0.01075000036507845,
        0.017069999128580093
      ],
      "type": "VEC2"
    },
    {
      "bufferView": 0,
      "byteOffset": 3271584,
      "componentType": 5125,
      "count": 156510,
      "type": "SCALAR"
    },
    {
      "bufferView": 2,
      "byteOffset": 4206696,
      "componentType": 5126,
      "count": 3740,
      "max": [
        0.021321550011634827,
        0.21645517647266388,
        1.5993553400039673
      ],
      "min": [
        -0.021321550011634827,
        0.1257326900959015,
        1.4418411254882813
      ],
      "type": "VEC3"
    },
    {
      "bufferView": 2,
      "byteOffset": 4251576,
      "componentType": 5126,
      "count": 3740,
      "max": [
        0.9986841678619385,
        0.9999591708183289,
        0.9993487000465393
      ],
      "min": [
        -0.9986841678619385,
        -0.9992570281028748,
        -0.9991403818130493
      ],
      "type": "VEC3"
    },
    {
      "bufferView": 3,
      "byteOffset": 2804464,
      "componentType": 5126,
      "count": 3740,
      "max": [
        0.0,
        0.0,
        0.0,
        1.0
      ],
      "min": [
        0.0,
        0.0,
        0.0,
        1.0
      ],
      "type": "VEC4"
    },
    {
      "bufferView": 1,
      "byteOffset": 1402232,
      "componentType": 5126,
      "count": 3740,
      "max": [
        0.9432500004768372,
        0.9858800172805786
      ],
      "min": [
        0.9067000150680542,
        0.9612100124359131
      ],
      "type": "VEC2"
    },
    {
      "bufferView": 0,
      "byteOffset": 3897624,
      "componentType": 5125,
      "count": 21864,
      "type": "SCALAR"
    },
    {
      "bufferView": 2,
      "byteOffset": 4296456,
      "componentType": 5126,
      "count": 15594,
      "max": [
        0.21583126485347748,
        0.065642811357975,
        1.2823768854141235
      ],
      "min": [
        -0.21583154797554016,
        -0.3901449143886566,
        0.8474106192588806
      ],
      "type": "VEC3"
    },
    {
      "bufferView": 2,
      "byteOffset": 4483584,
      "componentType": 5126,
      "count": 15594,
      "max": [
        0.9987731575965881,
        0.9999537467956543,
        0.9995439648628235
      ],
      "min": [
        -0.9991213083267212,
        -0.9999980926513672,
        -0.9986575245857239
      ],
      "type": "VEC3"
    },
    {
      "bufferView": 3,
      "byteOffset": 2864304,
      "componentType": 5126,
      "count": 15594,
      "max": [
        0.0941176488995552,
        0.0941176488995552,
        0.0941176488995552,
        1.0
      ],
      "min": [
        0.0941176488995552,
        0.0941176488995552,
        0.0941176488995552,
        1.0
      ],
      "type": "VEC4"
    },
    {
      "bufferView": 1,
      "byteOffset": 1432152,
      "componentType": 5126,
      "count": 15594,
      "max": [
        0.17725999653339386,
        0.42610999941825867
      ],
      "min": [
        0.036639999598264694,
        0.20956000685691833
      ],
      "type": "VEC2"
    },
    {
      "bufferView": 0,
      "byteOffset": 3985080,
      "componentType": 5125,
      "count": 91908,
      "type": "SCALAR"
    },
    {
      "bufferView": 2,
      "byteOffset": 4670712,
      "componentType": 5126,
      "count": 8128,
      "max": [
        0.07921551167964935,
        -0.08357162028551102,
        1.1523542404174805
      ],
      "min": [
        -0.07921551167964935,
        -0.24568137526512146,
        1.0422874689102173
      ],
      "type": "VEC3"
    },
    {
      "bufferView": 2,
      "byteOffset": 4768248,
      "componentType": 5126,
      "count": 8128,
      "max": [
        1.0,
        0.9999254941940308,
        0.99998939037323
      ],
      "min": [
        -1.0,
        -0.999925434589386,
        -0.99998939037323
      ],
      "type": "VEC3"
    },
    {
      "bufferView": 3,
      "byteOffset": 3113808,
      "componentType": 5126,
      "count": 8128,
      "max": [
        1.0,
        1.0,
        1.0,
        1.0
      ],
      "min": [
        0.9137254953384399,
        0.29411765933036804,
        0.5411764979362488,
        1.0
      ],
      "type": "VEC4"
    },
    {
      "bufferView": 1,
      "byteOffset": 1556904,
      "componentType": 5126,
      "count": 8128,
      "max": [
        0.31922000646591187,
        0.6407700181007385
      ],
      "min": [
        0.28001999855041504,
        0.5884699821472168
      ],
      "type": "VEC2"
    },
    {
      "bufferView": 0,
      "byteOffset": 4352712,
      "componentType": 5125,
      "count": 48384,
      "type": "SCALAR"
    },
    {
      "bufferView": 2,
      "byteOffset": 4865784,
      "componentType": 5126,
      "count": 6414,
      "max": [
        0.14273551106452942,
        -0.19106526672840118,
        1.1678560972213745
      ],
      "min": [
        -0.1522841900587082,
        -0.2711852788925171,
        1.0187969207763672
      ],
      "type": "VEC3"
    },
    {
      "bufferView": 2,
      "byteOffset": 4942752,
      "componentType": 5126,
      "count": 6414,
      "max": [
        1.0,
        1.0,
        1.0
      ],
      "min": [
        -1.0,
        -1.0,
        -1.0
      ],
      "type": "VEC3"
    },
    {
      "bufferView": 3,
      "byteOffset": 3243856,
      "componentType": 5126,
      "count": 6414,
      "max": [
        1.0,
        1.0,
        1.0,
        1.0
      ],
      "min": [
        1.0,
        1.0,
        1.0,
        1.0
      ],
      "type": "VEC4"
    },
    {
      "bufferView": 1,
      "byteOffset": 1621928,
      "componentType": 5126,
      "count": 6414,
      "max": [
        0.9980400204658508,
        0.9933900237083435
      ],
      "min": [
        0.18060000240802765,
        0.20476000010967255
      ],
      "type": "VEC2"
    },
    {
      "bufferView": 0,
      "byteOffset": 4546248,
      "componentType": 5125,
      "count": 34560,
      "type": "SCALAR"
    },
    {
      "bufferView": 2,
      "byteOffset": 5019720,
      "componentType": 5126,
      "count": 59806,
      "max": [
        0.24036948382854462,
        2.2587931156158447,
        -0.5744348764419556
      ],
      "min": [
        -1.5032404661178589,
        -0.10900244861841202,
        -2.1215286254882813
      ],
      "type": "VEC3"
    },
    {
      "bufferView": 2,
      "byteOffset": 5737392,
      "componentType": 5126,
      "count": 59806,
      "max": [
        0.9999365210533142,
        0.9999862313270569,
        0.999950110912323
      ],
      "min": [
        -0.9999891519546509,
        -0.9999972581863403,
        -0.9999922513961792
      ],
      "type": "VEC3"
    },
    {
      "bufferView": 3,
      "byteOffset": 3346480,
      "componentType": 5126,
      "count": 59806,
      "max": [
        0.09803921729326248,
        0.4313725531101227,
        0.6666666865348816,
        1.0
      ],
      "min": [
        0.09803921729326248,
        0.4313725531101227,
        0.6666666865348816,
        1.0
      ],
      "type": "VEC4"
    },
    {
      "bufferView": 1,
      "byteOffset": 1673240,
      "componentType": 5126,
      "count": 59806,
      "max": [
        0.9968299865722656,
        0.97639000415802
      ],
      "min": [
        0.7356799840927124,
        0.0019499999471008778
      ],
      "type": "VEC2"
    },
    {
      "bufferView": 0,
      "byteOffset": 4684488,
      "componentType": 5125,
      "count": 354180,
      "type": "SCALAR"
    }
  ],
  "asset": {
    "extras": {
      "author": "Robert Livingston (https://sketchfab.com/madsoggytoast)",
      "license": "CC-BY-4.0 (http://creativecommons.org/licenses/by/4.0/)",
      "source": "https://sketchfab.com/3d-models/aladdin-genie-3d-character-3a7a081ac61d4c649a3361639d1e09bf",
      "title": "Aladdin Genie - 3D Character"
    },
    "generator": "Sketchfab-12.68.0",
    "version": "2.0"
  },
  "bufferViews": [
    {
      "buffer": 0,
      "byteLength": 6101208,
      "name": "floatBufferViews",
      "target": 34963
    },
    {
      "buffer": 0,
      "byteLength": 2151688,
      "byteOffset": 6101208,
      "byteStride": 8,
      "name": "floatBufferViews",
      "target": 34962
    },
    {
      "buffer": 0,
      "byteLength": 6455064,
      "byteOffset": 8252896,
      "byteStride": 12,
      "name": "floatBufferViews",
      "target": 34962
    },
    {
      "buffer": 0,
      "byteLength": 4303376,
      "byteOffset": 14707960,
      "byteStride": 16,
      "name": "floatBufferViews",
      "target": 34962
    }
  ],
  "buffers": [
    {
      "byteLength": 19011336,
      "uri": "scene.bin"
    }
  ],
  "materials": [
    {
      "doubleSided": true,
      "name": "defaultMat",
      "pbrMetallicRoughness": {
        "baseColorFactor": [
          0.8,
          0.8,
          0.8,
          1.0
        ],
        "metallicFactor": 0.0,
        "roughnessFactor": 0.8912997456
      }
    }
  ],
  "meshes": [
    {
      "name": "Object_0",
      "primitives": [
        {
          "attributes": {
            "COLOR_0": 2,
            "NORMAL": 1,
            "POSITION": 0,
            "TEXCOORD_0": 3
          },
          "indices": 4,
          "material": 0,
          "mode": 4
        }
      ]
    },
    {
      "name": "Object_1",
      "primitives": [
        {
          "attributes": {
            "COLOR_0": 7,
            "NORMAL": 6,
            "POSITION": 5,
            "TEXCOORD_0": 8
          },
          "indices": 9,
          "material": 0,
          "mode": 4
        }
      ]
    },
    {
      "name": "Object_2",
      "primitives": [
        {
          "attributes": {
            "COLOR_0": 12,
            "NORMAL": 11,
            "POSITION": 10,
            "TEXCOORD_0": 13
          },
          "indices": 14,
          "material": 0,
          "mode": 4
        }
      ]
    },
    {
      "name": "Object_3",
      "primitives": [
        {
          "attributes": {
            "COLOR_0": 17,
            "NORMAL": 16,
            "POSITION": 15,
            "TEXCOORD_0": 18
          },
          "indices": 19,
          "material": 0,
          "mode": 4
        }
      ]
    },
    {
      "name": "Object_4",
      "primitives": [
        {
          "attributes": {
            "COLOR_0": 22,
            "NORMAL": 21,
            "POSITION": 20,
            "TEXCOORD_0": 23
          },
          "indices": 24,
          "material": 0,
          "mode": 4
        }
      ]
    },
    {
      "name": "Object_5",
      "primitives": [
        {
          "attributes": {
            "COLOR_0": 27,
            "NORMAL": 26,
            "POSITION": 25,
            "TEXCOORD_0": 28
          },
          "indices": 29,
          "material": 0,
          "mode": 4
        }
      ]
    },
    {
      "name": "Object_6",
      "primitives": [
        {
          "attributes": {
            "COLOR_0": 32,
            "NORMAL": 31,
            "POSITION": 30,
            "TEXCOORD_0": 33
          },
          "indices": 34,
          "material": 0,
          "mode": 4
        }
      ]
    },
    {
      "name": "Object_7",
      "primitives": [
        {
          "attributes": {
            "COLOR_0": 37,
            "NORMAL": 36,
            "POSITION": 35,
            "TEXCOORD_0": 38
          },
          "indices": 39,
          "material": 0,
          "mode": 4
        }
      ]
    },
    {
      "name": "Object_8",
      "primitives": [
        {
          "attributes": {
            "COLOR_0": 42,
            "NORMAL": 41,
            "POSITION": 40,
            "TEXCOORD_0": 43
          },
          "indices": 44,
          "material": 0,
          "mode": 4
        }
      ]
    },
    {
      "name": "Object_9",
      "primitives": [
        {
          "attributes": {
            "COLOR_0": 47,
            "NORMAL": 46,
            "POSITION": 45,
            "TEXCOORD_0": 48
          },
          "indices": 49,
          "material": 0,
          "mode": 4
        }
      ]
    },
    {
      "name": "Object_10",
      "primitives": [
        {
          "attributes": {
            "COLOR_0": 52,
            "NORMAL": 51,
            "POSITION": 50,
            "TEXCOORD_0": 53
          },
          "indices": 54,
          "material": 0,
          "mode": 4
        }
      ]
    }
  ],
  "nodes": [
    {
      "children": [
        1
      ],
      "matrix": [
        0.52723628282547,
        0.0,
        0.0,
        0.0,
        0.0,
        1.1706997212212355e-16,
        -0.52723628282547,
        0.0,
        0.0,
        0.52723628282547,
        1.1706997212212355e-16,
        0.0,
        0.0,
        0.0,
        0.0,
        1.0
      ],
      "name": "Sketchfab_model"
    },
    {
      "children": [
        2,
        3,
        4,
        5,
        6,
        7,
        8,
        9,
        10,
        11,
        12
      ],
      "name": "SubTool-0-2063249.OBJ"
    },
    {
      "mesh": 0,
      "name": "Object_2"
    },
    {
      "mesh": 1,
      "name": "Object_3"
    },
    {
      "mesh": 2,
      "name": "Object_4"
    },
    {
      "mesh": 3,
      "name": "Object_5"
    },
    {
      "mesh": 4,
      "name": "Object_6"
    },
    {
      "mesh": 5,
      "name": "Object_7"
    },
    {
      "mesh": 6,
      "name": "Object_8"
    },
    {
      "mesh": 7,
      "name": "Object_9"
    },
    {
      "mesh": 8,
      "name": "Object_10"
    },
    {
      "mesh": 9,
      "name": "Object_11"
    },
    {
      "mesh": 10,
      "name": "Object_12"
    }
  ],
  "scene": 0,
  "scenes": [
    {
      "name": "Sketchfab_Scene",
      "nodes": [
        0
      ]
    }
  ]
}
