{
  "accessors": [
    {
      "bufferView": 1,
      "componentType": 5126,
      "count": 65532,
      "max": [
        17.73736000061035,
        16.922439575195313,
        47.21689987182617
      ],
      "min": [
        -12.79817008972168,
        -10.382019996643066,
        -10.572489738464355
      ],
      "type": "VEC3"
    },
    {
      "bufferView": 1,
      "byteOffset": 786384,
      "componentType": 5126,
      "count": 65532,
      "max": [
        0.9999809861183167,
        0.9998962879180908,
        0.9999976754188538
      ],
      "min": [
        -0.9999856352806091,
        -0.9999881982803345,
        -0.9999894499778748
      ],
      "type": "VEC3"
    },
    {
      "bufferView": 2,
      "componentType": 5126,
      "count": 65532,
      "max": [
        0.9960784316062927,
        0.9960784316062927,
        0.9960784316062927,
        1.0
      ],
      "min": [
        0.21960784494876862,
        0.1411764770746231,
        0.3294117748737335,
        1.0
      ],
      "type": "VEC4"
    },
    {
      "bufferView": 0,
      "componentType": 5125,
      "count": 375597,
      "type": "SCALAR"
    },
    {
      "bufferView": 1,
      "byteOffset": 1572768,
      "componentType": 5126,
      "count": 6354,
      "max": [
        16.609689712524414,
        16.690189361572266,
        47.00743103027344
      ],
      "min": [
        -12.163459777832031,
        -10.243109703063965,
        -2.6389000415802
      ],
      "type": "VEC3"
    },
    {
      "bufferView": 1,
      "byteOffset": 1649016,
      "componentType": 5126,
      "count": 6354,
      "max": [
        0.9999507069587708,
        0.9998617768287659,
        0.9997639060020447
      ],
      "min": [
        -0.9998802542686462,
        -0.9997835159301758,
        -0.9998383522033691
      ],
      "type": "VEC3"
    },
    {
      "bufferView": 2,
      "byteOffset": 1048512,
      "componentType": 5126,
      "count": 6354,
      "max": [
        0.9176470637321472,
        0.9019607901573181,
        0.8705882430076599,
        1.0
      ],
      "min": [
        0.23137255012989044,
        0.1568627506494522,
        0.41960784792900085,
        1.0
      ],
      "type": "VEC4"
    },
    {
      "bufferView": 0,
      "byteOffset": 1502388,
      "componentType": 5125,
      "count": 26451,
      "type": "SCALAR"
    }
  ],
  "asset": {
    "extras": {
      "author": "blackdidthis (https://sketchfab.com/blackdidthis)",
      "license": "CC-BY-4.0 (http://creativecommons.org/licenses/by/4.0/)",
      "source": "https://sketchfab.com/3d-models/explorer-of-new-worlds-competition-wip-06-913754ee23f14f06b1919f57585cf047",
      "title": "Explorer Of New Worlds- Competition WIP-06"
    },
    "generator": "Sketchfab-12.68.0",
    "version": "2.0"
  },
  "bufferViews": [
    {
      "buffer": 0,
      "byteLength": 1608192,
      "name": "floatBufferViews",
      "target": 34963
    },
    {
      "buffer": 0,
      "byteLength": 1725264,
      "byteOffset": 1608192,
      "byteStride": 12,
      "name": "floatBufferViews",
      "target": 34962
    },
    {
      "buffer": 0,
      "byteLength": 1150176,
      "byteOffset": 3333456,
      "byteStride": 16,
      "name": "floatBufferViews",
      "target": 34962
    }
  ],
  "buffers": [
    {
      "byteLength": 4483632,
      "uri": "scene.bin"
    }
  ],
  "materials": [
    {
      "doubleSided": true,
      "name": "material_0",
      "pbrMetallicRoughness": {
        "baseColorFactor": [
          0.5,
          0.5,
          0.5,
          1.0
        ],
        "metallicFactor": 0.0,
        "roughnessFactor": 0.6
      }
    }
  ],
  "meshes": [
    {
      "name": "Object_0",
      "primitives": [
        {
          "attributes": {
            "COLOR_0": 2,
            "NORMAL": 1,
            "POSITION": 0
          },
          "indices": 3,
          "material": 0,
          "mode": 4
        }
      ]
    },
    {
      "name": "Object_1",
      "primitives": [
        {
          "attributes": {
            "COLOR_0": 6,
            "NORMAL": 5,
            "POSITION": 4
          },
          "indices": 7,
          "material": 0,
          "mode": 4
        }
      ]
    }
  ],
  "nodes": [
    {
      "children": [
        1
      ],
      "matrix": [
        1.0,
        0.0,
        0.0,
        0.0,
        0.0,
        2.220446049250313e-16,
        -1.0,
        0.0,
        0.0,
        1.0,
        2.220446049250313e-16,
        0.0,
        0.0,
        0.0,
        0.0,
        1.0
      ],
      "name": "Sketchfab_model"
    },
    {
      "children": [
        2,
        3
      ],
      "name": "Explorer of New Worlds-Competition_WIP-06.OBJ.cleaner.gles"
    },
    {
      "mesh": 0,
      "name": "Object_2"
    },
    {
      "mesh": 1,
      "name": "Object_3"
    }
  ],
  "scene": 0,
  "scenes": [
    {
      "name": "Sketchfab_Scene",
      "nodes": [
        0
      ]
    }
  ]
}
